<?xml version="1.0" encoding="UTF-8"?>
<svg version="1.1" xmlns="http://www.w3.org/2000/svg" width="135" height="134">
<path d="M0 0 C7.49307288 0.85986082 14.54573425 2.98017643 21.6875 5.3125 C22.57783936 5.59617432 23.46817871 5.87984863 24.38549805 6.17211914 C31.87445355 8.67772022 38.70483418 11.78101879 43.75 18.0625 C44.32105469 18.74570312 44.89210937 19.42890625 45.48046875 20.1328125 C45.98191406 20.74898437 46.48335937 21.36515625 47 22 C50.21193216 25.79591982 52.05071078 26.53253467 57 27 C60.45341456 26.4893 60.45341456 26.4893 63.875 25.5625 C65.02742188 25.27503906 66.17984375 24.98757812 67.3671875 24.69140625 C68.23601562 24.46324219 69.10484375 24.23507813 70 24 C66.46905698 22.79779797 63.87101018 23.20467651 60.25 23.9375 C59.26515625 24.13214844 58.2803125 24.32679687 57.265625 24.52734375 C56.51796875 24.68332031 55.7703125 24.83929688 55 25 C58.06120975 20.46940958 60.79132701 18.64941311 66 17 C71.45718766 16.48026784 75.02867748 17.1638953 80.03515625 19.265625 C82.99515838 20.37194786 85.86570541 20.67351098 89 21 C89 21.66 89 22.32 89 23 C88.39414063 23.0515625 87.78828125 23.103125 87.1640625 23.15625 C78.08030672 24.38605078 71.76883524 29.23609303 66.25 36.4375 C54.60761392 50.76155928 32.372812 56.86524207 15 60 C11.91015625 60.1328125 11.91015625 60.1328125 10 60 C13 58 13 58 16 57 C9.07 57.66 2.14 58.32 -5 59 C-2.03008583 56.03008583 1.62775048 55.97914632 5.625 55.25 C12.26779417 53.94854686 18.60220994 52.33351057 24.9375 49.9375 C25.59250488 49.69225586 26.24750977 49.44701172 26.92236328 49.19433594 C30.30841899 47.86273098 33.38053651 46.56182248 36 44 C37.43634464 34.95102879 33.41717791 28.23780548 28.5703125 20.80859375 C21.53018089 11.7804457 10.13196364 5.89206661 0 1 C0 0.67 0 0.34 0 0 Z " fill="#E94F36" transform="translate(31,9)"/>
<path d="M0 0 C3.29425985 3.07464252 4.74342772 4.71713858 5.625 9.125 C4.76742176 13.0698599 3.33140157 13.74602455 0 16 C-2.91566565 17.37454879 -5.90238766 18.48140175 -8.9375 19.5625 C-9.77708252 19.86623535 -10.61666504 20.1699707 -11.48168945 20.48291016 C-24.46967129 25.05905071 -37.55852285 27.19994366 -51.3125 27.1875 C-52.23587158 27.18669434 -53.15924316 27.18588867 -54.1105957 27.18505859 C-70.96635376 27.03364624 -70.96635376 27.03364624 -75 23 C-75.3494034 19.29632397 -75.23082609 16.62458824 -73.9375 13.125 C-72 11 -72 11 -68.875 10.125 C-65.22020293 10.00710332 -61.90437381 10.27463164 -58.29296875 10.734375 C-40.84863366 12.75518384 -22.45031358 8.08976192 -6.71875 0.73828125 C-4.19394979 -0.3462352 -2.67694052 -0.74359459 0 0 Z " fill="#E94F36" transform="translate(90,63)"/>
<path d="M0 0 C2.69777924 2.90011268 3.96948889 4.68802237 4.0625 8.6875 C2.62206227 11.82257035 1.05221996 12.41798097 -2 14 C-12.14612301 17.63751892 -22.1656114 18.38844154 -32.875 18.4375 C-34.56713623 18.4523645 -34.56713623 18.4523645 -36.29345703 18.4675293 C-53.71029801 18.28970199 -53.71029801 18.28970199 -58 14 C-58.49277886 9.72924986 -58.5374318 7.71691184 -55.91796875 4.22265625 C-53 2 -53 2 -49.65234375 1.94921875 C-48.42644531 2.19285156 -47.20054688 2.43648438 -45.9375 2.6875 C-29.72871797 5.4838844 -15.22458881 -1.86968635 0 0 Z " fill="#E94F36" transform="translate(76,91)"/>
<path d="M0 0 C2.42534537 0.56591392 4.83454021 1.20879873 7.21484375 1.94140625 C13.78828426 3.59653449 20.63419892 2.84861587 27.34570312 2.53320312 C28.38275391 2.50806641 29.41980469 2.48292969 30.48828125 2.45703125 C31.42712158 2.41811768 32.36596191 2.3792041 33.33325195 2.33911133 C35.75 2.875 35.75 2.875 37.59838867 5.2253418 C38.93791709 8.30736469 38.74166139 9.71971375 37.75 12.875 C32.10973804 15.25686738 26.77126392 15.25881232 20.75 15.25 C19.73139893 15.24983887 18.71279785 15.24967773 17.66333008 15.24951172 C9.55441675 15.12743791 -1.18199902 14.94300098 -7.25 8.875 C-7.76395533 5.61994956 -7.51184811 4.27300913 -5.6875 1.5 C-3.25 -0.125 -3.25 -0.125 0 0 Z " fill="#E94F36" transform="translate(29.25,110.125)"/>
</svg>
