<?xml version="1.0" encoding="UTF-8"?>
<svg version="1.1" xmlns="http://www.w3.org/2000/svg" width="1550" height="474">
<path d="M0 0 C10.3293937 6.38568081 18.63928539 16.93506308 26.0859375 26.40234375 C28.16242524 29.00098923 30.3462243 31.45487459 32.58984375 33.91015625 C36.43420856 38.13298185 40.05509909 42.49660198 43.6484375 46.93359375 C46.37514858 50.2579999 49.16064397 53.5261366 51.96484375 56.78515625 C59.2348477 65.23754717 66.49464035 73.69591322 73.52734375 82.34765625 C77.9389743 87.76586204 82.48308017 93.06286475 87.0390625 98.359375 C93.28411696 105.62046628 99.48615525 112.91569054 105.52734375 120.34765625 C109.57591171 125.32432553 113.73530354 130.19855288 117.92944336 135.05249023 C118.4116333 135.61137939 118.89382324 136.17026855 119.390625 136.74609375 C119.81512939 137.2364209 120.23963379 137.72674805 120.67700195 138.23193359 C122.52322118 140.42493704 124.30537527 142.66678366 126.08984375 144.91015625 C128.71135373 128.32079119 130.91848564 111.69153407 133 95.02734375 C133.25822275 92.96632553 133.51647288 90.90531075 133.77474976 88.84429932 C134.84168354 80.31935362 135.90538883 71.79402714 136.95629883 63.26708984 C137.60790756 57.98299367 138.26848483 52.70008318 138.93478203 47.41781998 C139.18411862 45.42726456 139.4301149 43.43628754 139.67256355 41.44488144 C140.01031262 38.67289794 140.35949139 35.90256861 140.71118164 33.13232422 C140.8063205 32.32813049 140.90145935 31.52393677 140.9994812 30.69537354 C142.04533138 22.64683974 143.45876362 15.15333589 150.08984375 9.91015625 C157.24943758 5.81895978 163.25691212 5.70072303 171.33984375 5.66015625 C172.35175781 5.63953125 173.36367188 5.61890625 174.40625 5.59765625 C180.69836955 5.56501231 185.390172 6.18422628 191.08984375 8.91015625 C194.8171689 12.6374814 196.86766989 16.50407511 197.3544817 21.7761116 C197.30220738 32.07323653 196.27777241 42.16729159 195.11791992 52.38964844 C194.90539827 54.31315129 194.6935387 56.2367274 194.48228455 58.16036987 C193.91064226 63.34733649 193.32945821 68.53319202 192.74619842 73.71886349 C192.13404986 79.17377966 191.5299156 84.62958422 190.92463684 90.08526611 C189.90682085 99.24819894 188.88293085 108.41043712 187.85522461 117.57226562 C186.67188284 128.12209033 185.49740982 138.6728726 184.32789248 149.22423816 C183.19743734 159.42183871 182.06133282 169.61880197 180.92247963 179.81546783 C180.44040752 184.13217078 179.96013508 188.4490681 179.48134422 192.76613617 C178.91547494 197.8655573 178.34457083 202.96439189 177.76999855 208.06283951 C177.56155023 209.91921806 177.3547087 211.77577797 177.14971924 213.63254166 C176.14660008 222.70908116 175.04735485 231.76275306 173.62983704 240.78497314 C173.52103531 241.51641312 173.41223359 242.2478531 173.30013484 243.00145793 C172.38707535 248.54354456 170.8150033 254.43378887 166.08984375 257.91015625 C159.95640121 259.91231504 154.01616759 260.76357143 148.08984375 257.91015625 C141.86104453 253.3769746 137.10061069 247.69976875 132.33984375 241.69921875 C130.172788 239.01297256 127.91829344 236.4568981 125.58984375 233.91015625 C122.56701954 230.59026139 119.66472214 227.21251513 116.83984375 223.72265625 C113.21721061 219.24801009 109.49502049 214.87628027 105.71484375 210.53515625 C97.45743744 201.04851149 89.33082362 191.46890552 81.39453125 181.7109375 C78.869513 178.64239838 76.29499606 175.61975813 73.71484375 172.59765625 C69.93192463 168.16164702 66.28438273 163.64424745 62.71484375 159.03515625 C58.31027832 153.35258629 53.67178264 147.91962641 48.9284668 142.51831055 C44.90765882 137.91586501 41.09979592 133.18631736 37.37037659 128.34608459 C33.955241 123.94401171 30.39243556 119.69167126 26.75 115.4765625 C26.20218872 114.84012817 25.65437744 114.20369385 25.08996582 113.54797363 C23.75795267 112.0008618 22.42409448 110.45533878 21.08984375 108.91015625 C20.38643274 114.51110693 19.68413101 120.11219564 18.98257446 125.71337891 C18.72040384 127.80569158 18.45801311 129.89797669 18.19540405 131.99023438 C16.52988271 145.26303044 14.88702746 158.53831537 13.28068924 171.8183918 C12.75150265 176.18945322 12.21970785 180.56019845 11.68815041 184.9309721 C11.25373652 188.50579562 10.82138619 192.08084594 10.39355469 195.65646362 C5.03945914 240.37758709 5.03945914 240.37758709 -1.91015625 245.91015625 C-8.94501035 249.82598948 -15.61365306 250.50963949 -23.53515625 250.34765625 C-25.01242187 250.35829102 -25.01242187 250.35829102 -26.51953125 250.36914062 C-33.9220224 250.3049857 -39.69656324 249.28542065 -45.78515625 244.78515625 C-52.90494939 235.15249494 -49.73583963 220.93529872 -48.55249023 209.85571289 C-48.40582735 208.45101387 -48.25956291 207.0462732 -48.11366272 205.64149475 C-47.71674736 201.83200175 -47.31393411 198.02315397 -46.90981174 194.2144196 C-46.48047039 190.16061721 -46.0558125 186.10632354 -45.63038635 182.05210876 C-44.90985811 175.19299243 -44.18541954 168.33429728 -43.45874023 161.47583008 C-42.72623068 154.5618909 -41.99790145 147.64752957 -41.27416992 140.73266602 C-37.84384101 107.96374961 -34.3999868 75.19551349 -30.51625252 42.47665215 C-30.22350128 40.00966003 -29.93301563 37.54239779 -29.64501762 35.07484627 C-29.25092912 31.71216629 -28.84618692 28.35095318 -28.43774414 24.98999023 C-28.32692316 24.03452993 -28.21610218 23.07906963 -28.10192299 22.09465599 C-25.93718117 4.69731551 -25.93718117 4.69731551 -21.91015625 -0.83984375 C-14.96425027 -3.73397124 -6.88371496 -2.75546123 0 0 Z " fill="#1784A2" transform="translate(585.91015625,187.08984375)"/>
<path d="M0 0 C1.06927734 0.22574707 2.13855469 0.45149414 3.24023438 0.68408203 C22.42611775 4.80559243 45.01497656 10.01497656 59.4375 24.4375 C63.37514066 30.89523069 63.44667456 36.79901545 62 44 C59.57070905 53.40984385 53.8718406 60.81456576 45.75 66.125 C33.87570448 68.89566895 23.80587535 65.84605725 12.61105347 62.0982666 C8.2812719 60.6571318 3.92616152 59.29742223 -0.4296875 57.9375 C-1.69912956 57.54053925 -1.69912956 57.54053925 -2.99421692 57.13555908 C-23.99522824 50.62220982 -54.01899016 45.19647678 -74.98828125 54.296875 C-80.53910535 57.7673062 -85.00322996 61.00645991 -88 67 C-88.38023402 71.56280819 -88.42738029 74.07400938 -86.5 78.25 C-80.63692978 84.69937724 -71.38854173 86.66619917 -63.3125 89.1875 C-62.08934082 89.57550781 -60.86618164 89.96351563 -59.60595703 90.36328125 C-52.08180996 92.74712282 -44.53862178 95.06844059 -36.99389648 97.38623047 C18.95149733 114.60426235 18.95149733 114.60426235 33 127 C33.81984375 127.62132812 34.6396875 128.24265625 35.484375 128.8828125 C45.52864783 137.33622224 52.23111608 151.12417051 54 164 C55.42560995 184.24366134 52.07451601 201.94632058 38.6875 217.8125 C17.71362139 241.69149606 -8.91001471 250.77497431 -40 253 C-46.28838911 253.29664879 -52.57673054 253.33078299 -58.87109375 253.31567383 C-61.63060377 253.31249354 -64.389057 253.33617625 -67.1484375 253.36132812 C-81.92005401 253.41504668 -96.00869038 251.87968167 -110.0625 247.0625 C-110.92045166 246.77165527 -111.77840332 246.48081055 -112.66235352 246.18115234 C-129.92164922 240.0506406 -155.61109616 230.38097802 -165.3125 213.75 C-167.60185373 204.5925851 -165.37493857 197.18785732 -161 189 C-157.20079253 182.94473109 -153.47358292 179.04639196 -147 176 C-146.34 175.67 -145.68 175.34 -145 175 C-134.67267479 173.58847977 -126.29792151 177.08101227 -117 181 C-112.52480184 182.86383847 -108.04512091 184.71658763 -103.5625 186.5625 C-102.39686523 187.04291748 -101.23123047 187.52333496 -100.03027344 188.01831055 C-86.65453101 193.46500757 -73.44228444 198.1180007 -58.85546875 198.203125 C-58.08624588 198.20882507 -57.31702301 198.21452515 -56.52449036 198.22039795 C-54.90330359 198.2298031 -53.2820981 198.23636399 -51.66088867 198.24023438 C-49.20522047 198.24993003 -46.75039384 198.28099119 -44.29492188 198.3125 C-33.61870069 198.38456779 -24.78583241 197.98873033 -16 191 C-11.61673301 186.61673301 -8.9913417 182.19333064 -8 176 C-8.1939493 170.88985757 -9.62599252 166.08183212 -13.25390625 162.3203125 C-17.35576641 159.21868222 -22.18958495 157.67574083 -27 156 C-27.77150391 155.72994141 -28.54300781 155.45988281 -29.33789062 155.18164062 C-41.57307879 150.94098245 -53.92557069 147.06935903 -66.28521729 143.21139526 C-120.41663215 126.30140341 -120.41663215 126.30140341 -134 114 C-134.68320313 113.40832031 -135.36640625 112.81664062 -136.0703125 112.20703125 C-147.33593494 101.81952767 -152.23154002 88.65906518 -152.99609375 73.64453125 C-153.01755975 53.61675309 -144.82320373 37.06112462 -131 23 C-130.38511719 22.37222656 -129.77023437 21.74445313 -129.13671875 21.09765625 C-114.0463811 6.84746588 -92.10131687 0.73058641 -72 -2 C-71.34604248 -2.0928125 -70.69208496 -2.185625 -70.01831055 -2.28125 C-47.57217552 -5.02485703 -22.07302737 -4.90557104 0 0 Z " fill="#1880A2" transform="translate(1259,192)"/>
<path d="M0 0 C1.84744728 1.04464293 3.66534693 2.14467563 5.4375 3.3125 C8.71272128 5.42797079 9.77984893 5.9891729 13.8125 6.1875 C18.5560448 5.1323227 23.03397089 3.0569177 27.5390625 1.2734375 C53.5327044 -8.29081449 87.18849676 -5.58148117 112.265625 5.6015625 C128.45929523 13.88346813 138.28274731 26.45179616 144.16015625 43.33203125 C150.5807065 68.02875246 145.74953069 98.15580408 133 120 C118.9042727 141.14359095 99.02748734 154.54416885 74.08251953 159.609375 C50.72358344 163.99088704 28.49170082 162.62790435 6 155 C4.34010518 154.44583091 2.67994691 153.89245033 1.01953125 153.33984375 C-0.3203125 152.89322917 -1.66015625 152.44661458 -3 152 C-3.09796875 153.16789063 -3.1959375 154.33578125 -3.296875 155.5390625 C-4.20951647 165.9567115 -5.3408645 176.34219723 -6.6829834 186.71331787 C-6.93226722 188.64691148 -7.17373762 190.5815073 -7.41503906 192.51611328 C-10.2373029 213.84711137 -10.2373029 213.84711137 -18 221 C-26.57488177 226.59025441 -37.33202125 226.0339211 -47.0625 224.25 C-50.76793228 223.27706527 -53.29855721 221.78586288 -56 219 C-59.86499553 207.4050134 -56.37863535 191.32234046 -55.4375 179.3125 C-55.35174713 178.20430908 -55.26599426 177.09611816 -55.17764282 175.9543457 C-52.80894227 145.6174267 -49.571045 115.36909424 -46.23435974 85.12615967 C-45.9993932 82.994495 -45.7652793 80.86273817 -45.53137207 78.73095703 C-44.62173009 70.44753403 -43.6979551 62.1658502 -42.75430298 53.88623047 C-42.46468661 51.33867871 -42.17762777 48.7908346 -41.8934021 46.24267578 C-40.61531017 34.83260778 -39.29644071 23.45271451 -37.04296875 12.1875 C-36.89853836 11.43484863 -36.75410797 10.68219727 -36.6053009 9.90673828 C-35.46464718 4.62080249 -33.62859233 -0.1476722 -29.08203125 -3.3515625 C-19.67894564 -6.28010323 -8.91633096 -3.24676078 0 0 Z M15.1875 49.625 C5.65226327 61.49356525 2.57257028 79.14701506 4 94 C5.71279204 102.96112936 9.29784554 109.34636567 16.78125 114.6796875 C29.94284872 122.51176561 49.4233557 121.9561406 63.8125 118.3125 C69.72168114 116.60258358 74.9284643 114.48668079 80 111 C81.3303125 110.13375 81.3303125 110.13375 82.6875 109.25 C92.13637023 100.05650465 96.06837867 87.44330385 96.28320312 74.53515625 C96.29287109 73.61605469 96.30253906 72.69695312 96.3125 71.75 C96.34150391 70.84636719 96.37050781 69.94273437 96.40039062 69.01171875 C96.47996483 60.50340029 93.90010581 53.05362345 88.09375 46.69921875 C68.34717344 30.67354561 33.18492639 31.08918906 15.1875 49.625 Z " fill="#1883A2" transform="translate(384,249)"/>
<path d="M0 0 C1.13597087 -0.00445668 1.13597087 -0.00445668 2.29489064 -0.0090034 C4.83423922 -0.0176796 7.3735406 -0.01919774 9.91290283 -0.02069092 C11.73300273 -0.02531987 13.55310166 -0.03034463 15.37319946 -0.03573608 C20.31962262 -0.048855 25.26603221 -0.0553041 30.21247005 -0.05974674 C33.30344513 -0.0626784 36.3944165 -0.06678339 39.48538971 -0.07125092 C49.15817649 -0.08492475 58.83095479 -0.09459186 68.50375056 -0.09845281 C79.66606386 -0.10293288 90.82825467 -0.12047892 101.99053073 -0.1494534 C110.62081616 -0.1710771 119.25106714 -0.18115746 127.88137937 -0.18249393 C133.03480568 -0.18354149 138.18811682 -0.18943907 143.34151459 -0.20731354 C148.19079731 -0.22380597 153.03987844 -0.22594399 157.88917923 -0.21717453 C159.66609106 -0.21640478 161.44301378 -0.22073874 163.21989822 -0.23063278 C165.65188291 -0.24337717 168.08315626 -0.2374623 170.51513672 -0.22705078 C171.21282189 -0.23510719 171.91050706 -0.24316359 172.62933421 -0.25146413 C178.4362192 -0.19360501 183.85089422 1.1115744 188.53497314 4.68341064 C193.356204 10.54970599 195.02411974 16.29500837 194.75372314 23.94122314 C193.78581292 32.73047242 191.26961069 39.26322706 184.51153564 45.14044189 C178.14778834 49.16648611 171.23224738 49.32616124 163.90997314 49.68731689 C163.08363373 49.72967468 162.25729431 49.77203247 161.40591431 49.81567383 C155.37039447 50.10318433 149.3422605 50.22798971 143.30059814 50.28106689 C141.60788885 50.30051444 139.91518051 50.32004567 138.22247314 50.33966064 C135.65060519 50.36892023 133.07967697 50.39045246 130.50762939 50.39093018 C127.95867651 50.39425407 125.41170568 50.42862412 122.86309814 50.46856689 C122.09543121 50.46149719 121.32776428 50.45442749 120.53683472 50.44714355 C116.97457531 50.52846115 114.81150825 50.93077659 111.87272644 52.98483276 C108.47110597 57.53092224 108.36188995 61.71837791 107.8862915 67.27374268 C107.7731684 68.37865618 107.6600453 69.48356968 107.54349422 70.62196541 C107.3047 72.95751809 107.07444231 75.29395738 106.8521843 77.63114166 C106.42159035 82.06704188 105.92046028 86.49325272 105.41484928 90.92112541 C105.03307265 94.26873046 104.66124435 97.6173088 104.29219055 100.96633911 C103.61615196 107.09769284 102.93601522 113.22858302 102.25478268 119.35936165 C101.23420959 128.54466114 100.21526978 137.73013553 99.20269775 146.9163208 C98.49031371 153.37773348 97.77297162 159.83858032 97.05259514 166.2991066 C96.78336886 168.72158365 96.51586381 171.14425279 96.25030708 173.56713486 C94.85356763 186.30371317 93.33907319 199.02107695 91.565979 211.71124268 C91.42085908 212.81062101 91.27573915 213.90999935 91.12622166 215.04269218 C89.89395626 223.54881291 87.97987714 233.01253942 81.51153564 239.14044189 C71.89524844 245.60410776 63.93026492 247.17775579 52.51153564 246.14044189 C45.98716226 244.72976657 40.63789797 242.59788884 36.51153564 237.14044189 C30.60079823 225.02064618 35.39855357 206.12830511 36.70684814 193.25762939 C36.93963744 190.9174426 37.17187378 188.57720075 37.40359497 186.23690796 C37.89172023 181.32277349 38.38475213 176.40916538 38.88165283 171.49591064 C39.50065443 165.37411928 40.11040292 159.2514561 40.71673965 153.1283989 C43.25951145 127.47163252 45.93440796 101.83176131 48.81622314 76.21075439 C48.94551334 75.05366848 49.07480354 73.89658257 49.20801163 72.70443344 C49.57083722 69.46667385 49.93841494 66.22949571 50.30792236 62.99249268 C50.46905077 61.55258657 50.46905077 61.55258657 50.6334343 60.08359146 C50.73475285 59.20718884 50.8360714 58.33078621 50.94046021 57.42782593 C51.07043302 56.287354 51.07043302 56.287354 51.20303154 55.12384224 C51.51153564 53.14044189 51.51153564 53.14044189 52.51153564 50.14044189 C51.50703369 50.15091553 50.50253174 50.16138916 49.46759033 50.17218018 C32.48930783 50.33300736 15.52267339 50.47735345 -1.42596436 49.32794189 C-3.11737549 49.22280273 -3.11737549 49.22280273 -4.84295654 49.11553955 C-11.74579948 48.5833259 -17.28513828 47.73773331 -22.80096436 43.26544189 C-27.91425324 36.82648552 -26.99148229 28.90927437 -26.48846436 21.14044189 C-25.39117635 14.16021484 -22.86436727 8.81344225 -17.48846436 4.14044189 C-11.62088523 0.61989442 -6.73545683 -0.00825939 0 0 Z " fill="#1683A1" transform="translate(1355.4884643554688,192.85955810546875)"/>
<path d="M0 0 C22.09342246 4.42910592 43.65461742 9.857162 64.96435547 17.22143555 C68.12703494 18.31320247 71.2953746 19.38710889 74.46484375 20.45898438 C84.80757265 23.98347922 95.04287959 27.70318046 105.1640625 31.82421875 C106.06504669 32.19049881 106.96603088 32.55677887 107.89431763 32.93415833 C118.91372537 37.5047029 127.38895483 43.73175122 136 52 C136.78890625 52.72574219 137.5778125 53.45148437 138.390625 54.19921875 C143.67218316 59.216699 148.07246771 64.55858487 152.4375 70.375 C166.65587545 89.67226945 166.65587545 89.67226945 188 99 C196.51948428 99.55199458 204.4027077 97.60928032 212.6484375 95.71875 C214.15275726 95.3815215 215.65728813 95.04523348 217.16201782 94.70983887 C221.09833406 93.83027281 225.03211751 92.93989076 228.96533203 92.04656982 C235.28020499 90.61420692 241.59876087 89.19819562 247.91743851 87.7827301 C250.12018363 87.28760086 252.32179582 86.7876679 254.52328491 86.2869873 C255.8688529 85.98353951 257.21444293 85.68018943 258.56005859 85.37695312 C259.73426361 85.11047974 260.90846863 84.84400635 262.11825562 84.56945801 C265 84 265 84 268 84 C268 83.01 268 82.02 268 81 C262.38479379 80.92444347 256.76989915 80.87075286 251.15429688 80.83520508 C249.25385367 80.82034788 247.35344325 80.80005652 245.453125 80.77368164 C233.46796533 80.61180581 222.08969479 81.27138585 210.27636719 83.3503418 C206.45797039 84.000251 202.86844807 84.12261886 199 84 C208.1763191 72.25153085 221.59166072 64.34820229 236.23828125 61.4296875 C251.50177064 59.68619442 265.02462859 60.98048782 279.41015625 66.2578125 C280.26306747 66.56572723 281.1159787 66.87364197 281.99473572 67.19088745 C284.68589277 68.16376596 287.37420748 69.14423756 290.0625 70.125 C291.90020716 70.79087115 293.73809622 71.45624048 295.57617188 72.12109375 C300.05290355 73.74160655 304.52710479 75.36892933 309 77 C309 77.66 309 78.32 309 79 C308.45287354 79.16491943 307.90574707 79.32983887 307.34204102 79.49975586 C277.19153742 88.72089244 256.07991491 104.32551559 235.56298828 128.20874023 C230.50942721 134.00036435 224.86170985 138.87633081 218.875 143.68359375 C217.0240034 145.17495378 215.18909151 146.68661746 213.375 148.22265625 C177.01557944 178.90091735 131.10359178 195.1319486 86 208 C85.35369629 208.18494019 84.70739258 208.36988037 84.04150391 208.5604248 C79.8044638 209.77066352 75.56105279 210.95586806 71.3125 212.125 C70.2500708 212.42051758 69.1876416 212.71603516 68.09301758 213.02050781 C58.57192767 215.5761072 58.57192767 215.5761072 54 215 C53.01 214.01 53.01 214.01 52 213 C54.27048981 211.93676118 56.5413864 210.874405 58.8125 209.8125 C59.43576172 209.52052734 60.05902344 209.22855469 60.70117188 208.92773438 C64.71408401 207.05235333 68.73900805 205.20513822 72.7722168 203.3737793 C73.753853 202.92793991 74.7354892 202.48210052 75.74687195 202.02275085 C76.49040421 201.68524307 77.23393646 201.34773529 78 201 C77.02947189 201.1650856 76.05894379 201.3301712 75.05900574 201.5002594 C65.92249208 203.05338981 56.78471077 204.59885473 47.64562511 206.13678074 C42.94692261 206.92773317 38.24871216 207.72140042 33.55151367 208.52124023 C29.0203439 209.29270654 24.48803057 210.05708279 19.95482826 210.81651115 C18.2236072 211.1078243 16.49281714 211.40171057 14.76247215 211.69818306 C12.34297512 212.11228546 9.92212161 212.51729791 7.50073242 212.92016602 C6.78216064 213.04532089 6.06358887 213.17047577 5.32324219 213.29942322 C2.08044729 213.82976434 0.17102677 214.05700892 -3 213 C-2.67 212.01 -2.34 211.02 -2 210 C0.12942505 209.08564758 0.12942505 209.08564758 2.98095703 208.31762695 C4.04782745 208.02334305 5.11469788 207.72905914 6.21389771 207.42585754 C7.38338959 207.11645737 8.55288147 206.80705719 9.7578125 206.48828125 C10.96702362 206.15636276 12.17623474 205.82444427 13.42208862 205.48246765 C16.66283901 204.59400059 19.90595686 203.71565856 23.15106201 202.84332275 C58.01834417 193.53206336 58.01834417 193.53206336 91.4375 180.0625 C92.51733154 179.55380371 93.59716309 179.04510742 94.7097168 178.52099609 C100.98515314 175.53171045 107.2110301 172.45643299 113.3125 169.125 C113.93374756 168.79250244 114.55499512 168.46000488 115.19506836 168.11743164 C120.30130503 165.21244469 124.11194769 161.66415694 126 156 C129.14019032 126.81167357 113.09973815 97.01081787 95.6171875 75 C85.12151445 62.09132174 73.23581071 50.08783411 60 40 C58.76554735 39.03655781 57.53117819 38.07300866 56.296875 37.109375 C46.00975404 29.15737511 35.3561532 22.42919996 23.9296875 16.24609375 C23.05086914 15.76922119 22.17205078 15.29234863 21.26660156 14.80102539 C19.56244134 13.88106237 17.85373764 12.96944328 16.13964844 12.06811523 C10.31413624 8.94259002 4.96614464 5.38609181 0 1 C0 0.67 0 0.34 0 0 Z " fill="#ED6C25" transform="translate(870,0)"/>
<path d="M0 0 C7.22283463 6.15637583 13.47539068 16.92703157 15.0625 26.375 C14.94391577 33.25288523 13.53340802 38.65290336 9 44 C1.87513693 49.73749304 -6.54040517 53.17625382 -14.875 56.75 C-15.57563568 57.0530304 -16.27627136 57.35606079 -16.99813843 57.66827393 C-66.8662709 79.21239092 -118.04613721 91.12034299 -172 96 C-173.06557129 96.09861328 -174.13114258 96.19722656 -175.22900391 96.29882812 C-190.4246669 97.60098831 -204.95777302 96.52391596 -220.09887695 95.02856445 C-223.52934017 94.69076526 -226.96080157 94.36516751 -230.39257812 94.04101562 C-236.93448797 93.41371405 -243.46892906 92.73145625 -250 92 C-250.98135925 91.89077209 -251.96271851 91.78154419 -252.97381592 91.66900635 C-255.7038943 91.352715 -258.42784988 91.00548406 -261.15234375 90.64453125 C-261.93742813 90.5537883 -262.72251251 90.46304535 -263.53138733 90.36955261 C-270.31752094 89.40238804 -275.47217806 86.52782194 -280.3125 81.6875 C-283.85627325 76.04371297 -285.77212616 70.728528 -285 64 C-282.4368029 52.83488722 -278.39342319 43.8315805 -269 37 C-265.96459752 35.48229876 -262.8295822 35.80961443 -259.5 35.8125 C-258.69506104 35.81185547 -257.89012207 35.81121094 -257.06079102 35.81054688 C-251.64574693 35.85549772 -246.31735545 36.20323323 -240.92871094 36.71875 C-208.96583146 39.72407461 -175.78617093 39.64873322 -144 35 C-142.24163818 34.75056641 -142.24163818 34.75056641 -140.44775391 34.49609375 C-105.66528006 29.42316036 -72.87256621 19.25169597 -40.44311523 5.82958984 C-10.89400588 -6.33833069 -10.89400588 -6.33833069 0 0 Z " fill="#ED6B24" transform="translate(1080,204)"/>
<path d="M0 0 C5.73254579 9.17207326 2.78790335 20.74334122 1.578125 30.91796875 C0.90725627 36.64431253 0.38743791 42.38262634 -0.125 48.125 C-0.25624268 49.5932019 -0.25624268 49.5932019 -0.39013672 51.09106445 C-0.59489879 53.39391674 -0.79829041 55.69687864 -1 58 C-0.14994385 58.02505615 0.7001123 58.0501123 1.57592773 58.07592773 C9.77756261 58.32069467 17.97837835 58.58273968 26.17871094 58.86767578 C28.46572849 58.946871 30.75281877 59.02406215 33.04003906 59.09716797 C35.38176972 59.17522566 37.72182408 59.2705518 40.0625 59.375 C41.29097656 59.42398438 42.51945312 59.47296875 43.78515625 59.5234375 C47.43380302 60.06430616 49.88998316 61.02295011 53 63 C56.43692343 67.81367374 55.43994825 74.06846365 54.60546875 79.62890625 C53.22279214 85.47183001 50.88767951 88.76976692 46.328125 92.625 C40.73185798 95.93017784 34.92968036 96.29023017 28.6171875 96.30859375 C27.02213145 96.33373382 25.42707945 96.3591321 23.83203125 96.38476562 C21.3458749 96.41355995 18.85978834 96.43761432 16.37353516 96.45629883 C13.95440998 96.47797899 11.5360475 96.51739085 9.1171875 96.55859375 C8.37749725 96.55870956 7.63780701 96.55882538 6.8757019 96.5589447 C2.42628099 96.64400046 -0.51524073 97.1656702 -4 100 C-5.65772364 102.78311235 -6.30392412 105.09282087 -6.59423828 108.30273438 C-6.67417023 109.14461304 -6.75410217 109.9864917 -6.8364563 110.85388184 C-6.95221512 112.21011658 -6.95221512 112.21011658 -7.0703125 113.59375 C-7.15626678 114.5362561 -7.24222107 115.47876221 -7.33078003 116.4498291 C-7.51103527 118.44667379 -7.68729727 120.44388238 -7.85986328 122.44140625 C-8.12170078 125.46194053 -8.3976825 128.48092443 -8.67578125 131.5 C-10.9056531 150.56362353 -10.9056531 150.56362353 -7 169 C-6.690625 169.969375 -6.38125 170.93875 -6.0625 171.9375 C-4.68788203 174.60587605 -3.80826129 174.96537742 -1 176 C0.0725 176.53625 1.145 177.0725 2.25 177.625 C11.76351108 181.12625501 24.11307748 179.0781536 33.9140625 177.92578125 C38.6920374 178.04069457 41.82663666 179.98102657 45.375 183.0625 C47.84904285 187.53480822 47.96429219 191.00681578 47 196 C43.34473738 206.21657254 38.40393327 213.04705257 28.6953125 218.23046875 C12.04947597 225.78931583 -9.18684523 224.12504281 -26 218 C-40.52463741 211.92599899 -50.94932866 204.97281309 -57.25 190 C-60.77670974 181.09041749 -61.35462812 172.44808451 -61.3125 162.9375 C-61.31048584 161.69339355 -61.30847168 160.44928711 -61.30639648 159.16748047 C-61.14035974 143.16631053 -59.73368882 127.08240497 -57.46118164 111.24487305 C-57.07196518 108.50634686 -56.86533503 105.94684877 -56.875 103.1875 C-56.87242188 102.43855469 -56.86984375 101.68960938 -56.8671875 100.91796875 C-56.88244569 98.91481088 -56.88244569 98.91481088 -58 97 C-61.05567855 96.31426203 -64.09531378 95.79122542 -67.18945312 95.3203125 C-72.6760142 94.36706991 -76.99314188 92.60247644 -80.4609375 88.10546875 C-83.57400258 81.57335357 -83.80143866 76.76690141 -81.375 69.875 C-79.71543175 65.43530033 -77.12546751 62.3419979 -73 60 C-70.13830588 59.2206096 -67.32899968 58.98943227 -64.375 58.8125 C-57.84119044 58.55348016 -57.84119044 58.55348016 -52 56 C-51.13620823 53.61903942 -51.13620823 53.61903942 -50.8671875 50.765625 C-50.71991211 49.68603516 -50.57263672 48.60644531 -50.42089844 47.49414062 C-50.28200195 46.34107422 -50.14310547 45.18800781 -50 44 C-49.69076521 41.66137083 -49.38085835 39.32283044 -49.0703125 36.984375 C-48.59303741 33.34761774 -48.12026802 29.71123888 -47.67578125 26.0703125 C-46.57318466 17.84117696 -45.27063786 11.42638252 -39.375 5.25 C-29.98502428 -1.75709243 -10.2172813 -7.72526147 0 0 Z " fill="#1883A2" transform="translate(83,194)"/>
<path d="M0 0 C6.2538668 4.20933342 9.64723566 9.94170697 12 17 C12.74465636 23.872812 12.13155292 29.35765003 8 35 C2.7959611 39.83418535 -3.01311715 42.60457203 -9.625 45 C-10.53378906 45.33612305 -11.44257812 45.67224609 -12.37890625 46.01855469 C-29.10991361 52.06030734 -46.41647 56.35050791 -64 59 C-64.97598145 59.15098145 -65.95196289 59.30196289 -66.95751953 59.45751953 C-85.79411533 62.20002374 -104.73897949 62.34429553 -123.73925781 62.426651 C-125.71325116 62.43730172 -127.68719784 62.45569902 -129.66113281 62.47424316 C-147.80407555 62.61875569 -165.14893911 61.26324354 -183 58 C-184.14193817 57.79596054 -184.14193817 57.79596054 -185.3069458 57.58779907 C-189.12917695 56.89472413 -192.90870366 56.08571701 -196.6875 55.1875 C-197.69103516 54.97802734 -198.69457031 54.76855469 -199.72851562 54.55273438 C-207.84768117 52.64705252 -213.02811974 48.99346409 -218 42.3125 C-220.38016504 34.4282033 -219.68481347 26.70148534 -216.25390625 19.25390625 C-213.01911479 13.43934341 -209.20661557 9.06082491 -202.8671875 6.66015625 C-189.18114559 3.50901036 -174.44220073 6.84620178 -160.77111816 8.70263672 C-120.43892401 14.16893156 -82.3271889 12.36774098 -42.98046875 1.8984375 C-41.94909286 1.62543068 -41.94909286 1.62543068 -40.8968811 1.34690857 C-37.51485864 0.44929928 -34.13880734 -0.46459289 -30.76953125 -1.40893555 C-19.71243929 -4.40093061 -10.20437446 -6.07070418 0 0 Z " fill="#ED6B24" transform="translate(1025,310)"/>
<path d="M0 0 C5.3645746 3.60499413 9.31747959 8.53871939 12.875 13.875 C13.48085937 13.28332031 14.08671875 12.69164062 14.7109375 12.08203125 C28.07709466 -0.52328311 42.23237328 -3.823121 60.2578125 -3.34375 C75.60974178 -2.71068075 75.60974178 -2.71068075 81 1.0625 C84.61143119 6.47964678 86.35776215 9.55755055 85.375 16.0625 C83.34144932 25.16326691 80.13989137 34.53920711 72.75 40.625 C65.70520277 43.68795532 59.12247808 42.87783446 51.796875 41.3671875 C40.81399703 39.51713052 30.69960579 40.75523653 21.125 46.5 C10.74274619 54.0257607 8.29946715 65.72437203 6.19918823 77.74191284 C5.72426202 81.03349737 5.28078708 84.32377717 4.87701225 87.62455559 C4.61259955 89.78422258 4.33499361 91.94187371 4.05445862 94.09950256 C3.46257986 98.6691057 2.88645632 103.24061611 2.3125 107.8125 C1.64260747 113.14425205 0.96596399 118.47499214 0.2735157 123.80386543 C0.00257097 125.91438945 -0.25676648 128.02612032 -0.51551819 130.13816833 C-2.48187934 145.35083912 -2.48187934 145.35083912 -7.1875 151.625 C-15.24724362 157.79842065 -25.15899677 159.7105643 -35.125 158.875 C-40.74529484 157.63580305 -44.41298323 155.37441427 -48.125 150.875 C-49.44677941 146.90966178 -49.29477905 143.11420766 -49.28125 138.98046875 C-49.27879272 138.08885544 -49.27633545 137.19724213 -49.27380371 136.27861023 C-49.19056333 126.53975267 -48.48165568 116.88471557 -47.625 107.1875 C-47.54252014 106.22573853 -47.46004028 105.26397705 -47.37506104 104.27307129 C-45.69260263 84.83892783 -43.38961967 65.48226733 -41 46.125 C-40.91183014 45.40901768 -40.82366028 44.69303535 -40.7328186 43.9553566 C-40.13940405 39.14113343 -39.53707657 34.3281056 -38.9296875 29.515625 C-38.7776889 28.29971176 -38.62569031 27.08379852 -38.46908569 25.83103943 C-35.64487142 3.76134748 -35.64487142 3.76134748 -31.125 -1.125 C-22.02680603 -6.69532284 -9.04964944 -5.15882127 0 0 Z " fill="#1784A2" transform="translate(187.125,258.125)"/>
<path d="M0 0 C7.02849486 8.84229999 2.29999535 26.36900757 1.171875 36.9375 C0.97917131 38.78461546 0.78698295 40.63178474 0.59527588 42.47900391 C0.08941806 47.33842242 -0.42400828 52.19701296 -0.93890381 57.05548096 C-1.44741087 61.86848985 -1.94781347 66.68234082 -2.44921875 71.49609375 C-3.3308826 79.9520711 -4.23021832 88.40604912 -5.13791656 96.85926819 C-5.71126832 102.22118904 -6.26251166 107.58476016 -6.79307938 112.95108032 C-7.12330038 116.27249005 -7.46514109 119.59264401 -7.8090744 122.91265869 C-7.96501959 124.44544341 -8.11574214 125.97877041 -8.26068878 127.51263428 C-10.07704293 146.68138875 -10.07704293 146.68138875 -17.5 153.4375 C-25.53828738 159.84986107 -35.0993901 159.64647271 -45 159 C-50.11490929 158.12654226 -53.09573716 157.06250884 -56.5 153.0625 C-63.47073433 138.83058408 -58.17688156 117.77382645 -56.2265625 102.74609375 C-55.93896833 100.46561599 -55.65231469 98.18501944 -55.36654663 95.90431213 C-54.77004863 91.16272824 -54.16600909 86.42219411 -53.55566406 81.68237305 C-52.77619048 75.62844451 -52.01025511 69.57290382 -51.24923134 63.51663113 C-50.51725913 57.69668126 -49.77832722 51.87762097 -49.0390625 46.05859375 C-48.90044422 44.96244688 -48.76182594 43.86630001 -48.61900711 42.73693657 C-48.22331268 39.61765703 -47.82263621 36.49905845 -47.42041016 33.38061523 C-47.30604111 32.47394104 -47.19167206 31.56726685 -47.07383728 30.63311768 C-44.37221793 9.88042528 -44.37221793 9.88042528 -35.8359375 3.1640625 C-25.89822503 -3.13687009 -10.48042694 -6.55026684 0 0 Z " fill="#1883A2" transform="translate(327,257)"/>
<path d="M0 0 C1.39958954 0.32582565 1.39958954 0.32582565 2.82745361 0.65823364 C5.78829107 1.34877417 8.74581489 2.05233254 11.703125 2.7578125 C41.08404011 9.71110219 69.92367742 13.72184404 100.0078125 8.3359375 C103.99722221 7.72218216 107.9219509 7.62020327 111.953125 7.5703125 C113.12488281 7.52680664 113.12488281 7.52680664 114.3203125 7.48242188 C119.70661964 7.4234808 122.66085146 8.34608332 126.953125 11.8828125 C132.73056938 17.82532672 134.93842841 25.71150617 134.953125 33.8828125 C134.30900132 37.81196693 133.62325042 40.078662 131.078125 43.1328125 C107.58847008 56.28701926 65.70604272 55.90473822 39.953125 51.8828125 C38.80585937 51.71813477 37.65859375 51.55345703 36.4765625 51.38378906 C-19.41648526 43.20988747 -19.41648526 43.20988747 -34.046875 27.8828125 C-35.95369171 24.06917908 -35.63127431 20.02873967 -35.046875 15.8828125 C-32.25328257 8.23324396 -29.04968723 2.66215263 -21.796875 -1.3671875 C-14.46213822 -3.36757026 -7.22515628 -1.75395395 0 0 Z " fill="#ED6C25" transform="translate(857.046875,381.1171875)"/>
<path d="M0 0 C4.57952933 4.13771945 8.62113722 8.6695318 9.3359375 14.953125 C9.41958597 22.01305594 9.0288201 27.11820341 5 33 C4.443125 33.886875 3.88625 34.77375 3.3125 35.6875 C-4.17288345 43.17288345 -14.61080026 46.09928931 -24.9375 46.4375 C-32.82276047 46.25711822 -39.2418676 44.31884765 -45.9375 40.1875 C-51.68038282 34.09656367 -53.31499387 27.76635501 -53.21875 19.59765625 C-52.70892742 13.54351315 -50.36512018 8.25024859 -46 4 C-32.41922303 -4.99122586 -14.73689851 -8.93376749 0 0 Z " fill="#1A84A2" transform="translate(335,196)"/>
</svg>
